<svg xmlns="http://www.w3.org/2000/svg" id="Capa_1" data-name="Capa 1" viewBox="0 0 609.52 604.55"><defs><style>.cls-1{fill:#ae925d;}</style></defs><polygon class="cls-1" points="106.42 406.9 106.42 522.92 145.6 517.55 145.6 525.2 94.18 525.2 94.18 406.9 106.42 406.9"></polygon><polygon class="cls-1" points="570.34 406.9 570.34 522.92 609.52 517.55 609.52 525.2 558.1 525.2 558.1 406.9 570.34 406.9"></polygon><polygon class="cls-1" points="372.42 525.68 360.18 525.68 360.18 407.38 372.42 407.38 372.42 462.8 439.57 462.8 439.57 407.38 451.8 407.38 451.8 525.68 439.57 525.68 439.57 467.39 372.42 467.39 372.42 525.68"></polygon><path class="cls-1" d="M51.62,420H38.85l5.92,17.19L10.38,538.26H24.12L36.18,484H60.63l18.16,54.28H91.6Zm-14.3,59.43L46.11,441l13,38.41Z" transform="translate(-10.38 -12.86)"></path><path class="cls-1" d="M317.74,420H305l5.92,17.19L276.5,538.26h13.75L302.3,484h24.46l18.15,54.28h12.81Zm-14.3,59.43L312.23,441l13,38.41Z" transform="translate(-10.38 -12.86)"></path><path class="cls-1" d="M515.18,420H502.42l5.93,17.19L473.94,538.26h13.77l12-54.28H524.2l18.15,54.28h12.81Zm-14.29,59.43L509.68,441l13,38.41Z" transform="translate(-10.38 -12.86)"></path><path class="cls-1" d="M251.53,419.76v.72a58.78,58.78,0,0,0-16.34,3.87A61,61,0,0,0,210,442.85,59.15,59.15,0,0,0,198.17,467L180.3,419.76H167.45l3.84,10.14-3.45,108.16H178l-2.69-97.66,37.65,99.19L217,523c1.16-4.26,2.4-8.5,3.81-12.66a71.28,71.28,0,0,1-7.08-16.61Q209.41,478,211.59,464a50.73,50.73,0,0,1,10-23.88,38.34,38.34,0,0,1,20-13.61,35.2,35.2,0,0,1,9.87-1.47L251.37,441v97.09h12V419.76Z" transform="translate(-10.38 -12.86)"></path><path class="cls-1" d="M273.46,572.79c-2.79,0-5.61,1-5.61,4.35,0,8.55,22.17,9.63,22.17,20.23,0,6.69-7.75,9.22-13.21,9.16-5.29,0-10.77-1.88-14.1-4.67l2.53-3.88c4.14,4.08,9.1,7.61,14.1,7.61,3.28,0,6.63-1.87,6.63-5.34.06-9.28-22.58-10.34-22.58-20.64,0-5.88,7.87-7.81,12.34-7.81a20.92,20.92,0,0,1,13.38,4.87l-2.82,3.67c-2.87-4.08-7.69-7.61-12.83-7.55" transform="translate(-10.38 -12.86)"></path><path class="cls-1" d="M297,580.41c0-3.94-1.73-3.82-4.87-2.88l10.22-5.46v2.32a18.73,18.73,0,0,1,16.44-1.26c6.46,2.61,10.81,8.75,10.81,17,0,8.69-6.61,16.44-18.44,16.44a25.74,25.74,0,0,1-8.81-1.76v4.49c0,4,.47,7.49,4.87,8.14H292.1c4.4-.65,4.87-4.14,4.87-8.14ZM324.22,592c0-10.54-7-19-15-19a12.59,12.59,0,0,0-6.87,2.29v25.11c8.13,9.77,21.9,6,21.9-8.35" transform="translate(-10.38 -12.86)"></path><path class="cls-1" d="M357.4,605.86V595.17c-3.2,5.35-8.68,11.37-15.44,11.37a8.8,8.8,0,0,1-9.07-8.9c0-6.48,6.54-8.81,12.89-10.89,6-2,11.83-3.73,11.83-8.61,0-3.55-3.22-5.14-6.34-5.14-4,0-7.43,2.21-12.37,7l-5-3.2a24,24,0,0,1,13.83-5c7.28,0,15,3.67,15,12v13.83c0,4,.47,7.55,4.87,8.22Zm-11.62-18.44a10.27,10.27,0,0,0-7.43,10c0,4.75,4.14,7.07,7.43,7.07,6.81,0,11.75-11.81,11.56-20.7v-.61c-2.61,2.88-7.09,3-11.56,4.28" transform="translate(-10.38 -12.86)"></path><path class="cls-1" d="M317.75,12.86h-5.24c-67.8,0-123,56.44-123,125.83v43.84a.28.28,0,0,0,0,.12v43.69c0,69.37,55.16,125.81,122.94,125.81h5.24c67.8,0,123-56.44,123-125.81V182.65s0-.08,0-.12V138.69c0-69.39-55.15-125.83-123-125.83M194.41,194.93a9.88,9.88,0,0,1,2.93-6.94,9.46,9.46,0,0,1,6.78-3h7.07c.56.09,1.19.76,1.76,2a14.47,14.47,0,0,1,1.3,6.45v46.83a46.81,46.81,0,0,0,6.1,23.33,45.79,45.79,0,0,0,16.54,17,44.18,44.18,0,0,0,22.87,6.22l22.6-.08.14,11.45c0,18.41,14.65,33.39,32.64,33.39s32.61-15,32.61-33.37l.17-11.47,11.68,0,10.92.1a44.23,44.23,0,0,0,22.86-6.22,45.72,45.72,0,0,0,16.54-17A46.79,46.79,0,0,0,416,240.23V193.4a14.74,14.74,0,0,1,1.31-6.45c.57-1.18,1.22-1.87,1.75-2h7.1a9.49,9.49,0,0,1,6.77,3,9.91,9.91,0,0,1,2.92,6.94v28.72c0,68.12-54.16,123.52-120.71,123.52s-120.73-55.4-120.73-123.52ZM372.58,179.1a3.2,3.2,0,0,1-.94-2.39V83.17a30.89,30.89,0,0,1,16.64,5.53,39,39,0,0,1,13,15.13c3.06,6.08,4.82,17.77,4.82,32.05v35.75A13,13,0,0,0,409,180H374.6a3,3,0,0,1-2-.94m-13.75.94h-7.45a3,3,0,0,1-1.94-.94,3.17,3.17,0,0,1-.95-2.39L348,83.27h10.72a3.2,3.2,0,0,1,2.11,1,3.12,3.12,0,0,1,1,2.37v90.09a3.34,3.34,0,0,1-2.93,3.33m-.08,5a3.28,3.28,0,0,1,3,3.33v90.07a3.17,3.17,0,0,1-.95,2.37,3.29,3.29,0,0,1-2,1H347.94l.55-93.42a3.2,3.2,0,0,1,.94-2.39,2.91,2.91,0,0,1,1.89-.94Zm-101.05.94a3.24,3.24,0,0,1,.94,2.39v93.52A31,31,0,0,1,242,276.31a39.37,39.37,0,0,1-13-15.13c-3.06-6.08-4.79-17.77-4.79-32.05V193.4a13.07,13.07,0,0,0-2.92-8.41h34.35a3,3,0,0,1,2,.94m13.75-.94h7.42a2.84,2.84,0,0,1,2,.94,3.18,3.18,0,0,1,1,2.39l.53,93.42H271.59a3.16,3.16,0,0,1-2.1-1,3.13,3.13,0,0,1-1-2.37V188.32a3.13,3.13,0,0,1,1-2.37,3.07,3.07,0,0,1,2-1m-50.14-5a13,13,0,0,0,2.92-8.41V135.88c0-14.28,1.73-26,4.79-32A39.54,39.54,0,0,1,242,88.7a31,31,0,0,1,16.65-5.53v93.54a3.16,3.16,0,0,1-.94,2.39,3.05,3.05,0,0,1-2,.94ZM279,180h-7.44a3.13,3.13,0,0,1-2-1,3.17,3.17,0,0,1-1-2.37V86.62a3.34,3.34,0,0,1,3-3.35h10.81l-.55,93.44a3.16,3.16,0,0,1-.94,2.39A2.86,2.86,0,0,1,279,180M339.39,66.85l-.88,109.86a3.23,3.23,0,0,1-.94,2.39,3,3,0,0,1-2,.9H294.68a2.92,2.92,0,0,1-2-.9,3.16,3.16,0,0,1-.94-2.39l-.89-109.86c0-13.68,10.89-24.82,24.27-24.82s24.25,11.14,24.25,24.82m-.88,121.47.88,109.82c0,13.68-10.87,24.82-24.25,24.82s-24.27-11.14-24.27-24.8l.89-109.84a3.16,3.16,0,0,1,.94-2.39,3.07,3.07,0,0,1,2.16-.94h40.55a3,3,0,0,1,2.14.94,3.14,3.14,0,0,1,1,2.39M408.94,185A13,13,0,0,0,406,193.4v35.73c0,14.28-1.76,26-4.8,32.05a39.46,39.46,0,0,1-13,15.13,31,31,0,0,1-16.64,5.53V188.32a3.13,3.13,0,0,1,.94-2.39,3,3,0,0,1,1.95-.94Zm24-8a9.46,9.46,0,0,1-6.79,3h-7.08c-.53-.08-1.18-.78-1.75-2a14.71,14.71,0,0,1-1.31-6.45V124.78a46.6,46.6,0,0,0-6.1-23.33,45.42,45.42,0,0,0-16.54-17,44,44,0,0,0-22.86-6.24l-22.6.1-.17-11.47c0-18.39-14.62-33.39-32.61-33.39s-32.64,15-32.64,33.37l-.16,11.49H270.65l-10.91-.1a44.12,44.12,0,0,0-22.87,6.24,45.79,45.79,0,0,0-16.54,17,46.81,46.81,0,0,0-6.1,23.33v46.85a14.72,14.72,0,0,1-1.28,6.45c-.59,1.18-1.22,1.88-1.78,2H204.1a9.42,9.42,0,0,1-6.78-3,10,10,0,0,1-2.93-6.94V141.36c0-68.12,54.15-123.54,120.75-123.54S435.89,73.24,435.89,141.36V170.1A9.92,9.92,0,0,1,433,177" transform="translate(-10.38 -12.86)"></path></svg>